<mxfile host="app.diagrams.net" modified="2020-08-12T10:04:20.781Z" agent="5.0 (Macintosh; Intel Mac OS X 10_15_3) AppleWebKit/537.36 (KHTML, like Gecko) Chrome/84.0.4147.105 Safari/537.36" etag="UQ6BSb3hf_oWvRQn99oO" version="13.6.2" type="github">
  <diagram name="Page-1" id="6133507b-19e7-1e82-6fc7-422aa6c4b21f">
    <mxGraphModel dx="3358" dy="2006" grid="1" gridSize="10" guides="1" tooltips="1" connect="1" arrows="1" fold="1" page="1" pageScale="1" pageWidth="2336" pageHeight="1654" background="#ffffff" math="0" shadow="0">
      <root>
        <mxCell id="0" />
        <mxCell id="1" parent="0" />
        <mxCell id="b94bc138ca980ef-8" style="edgeStyle=orthogonalEdgeStyle;rounded=0;html=1;labelBackgroundColor=none;startArrow=none;startFill=0;startSize=8;endArrow=classic;endFill=1;endSize=16;fontFamily=Verdana;fontSize=12;exitX=0.5;exitY=0;exitDx=0;exitDy=0;entryX=0.5;entryY=0;entryDx=0;entryDy=0;" parent="1" source="78961159f06e98e8-43" target="M_9KOcnQaPbsYo9cMEfQ-25" edge="1">
          <mxGeometry relative="1" as="geometry">
            <Array as="points">
              <mxPoint x="260" y="720" />
              <mxPoint x="1293" y="720" />
            </Array>
          </mxGeometry>
        </mxCell>
        <mxCell id="M_9KOcnQaPbsYo9cMEfQ-35" style="rounded=0;orthogonalLoop=1;jettySize=auto;html=1;exitX=0.5;exitY=0;exitDx=0;exitDy=0;entryX=0.5;entryY=0;entryDx=0;entryDy=0;verticalAlign=middle;endArrow=none;endFill=0;edgeStyle=orthogonalEdgeStyle;" edge="1" parent="1" source="235556782a83e6d0-1" target="78961159f06e98e8-69">
          <mxGeometry relative="1" as="geometry">
            <Array as="points">
              <mxPoint x="150" y="970" />
              <mxPoint x="373" y="970" />
            </Array>
          </mxGeometry>
        </mxCell>
        <mxCell id="M_9KOcnQaPbsYo9cMEfQ-14" value="&lt;h1&gt;聚合风控欺诈大盘全流程监控报表模型&lt;/h1&gt;&lt;p&gt;数据说明：&lt;/p&gt;&lt;p&gt;1、投诉需要对应投诉人和被投诉人&lt;/p&gt;&lt;p&gt;2、XXX&lt;/p&gt;" style="text;html=1;strokeColor=none;fillColor=none;spacing=5;spacingTop=-20;whiteSpace=wrap;overflow=hidden;rounded=0;" vertex="1" parent="1">
          <mxGeometry x="60" y="190" width="435" height="120" as="geometry" />
        </mxCell>
        <mxCell id="M_9KOcnQaPbsYo9cMEfQ-30" value="" style="endArrow=classic;html=1;entryX=0.5;entryY=1;entryDx=0;entryDy=0;exitX=0.5;exitY=0;exitDx=0;exitDy=0;" edge="1" parent="1" source="78961159f06e98e8-95" target="M_9KOcnQaPbsYo9cMEfQ-25">
          <mxGeometry relative="1" as="geometry">
            <mxPoint x="1295.75" y="992" as="sourcePoint" />
            <mxPoint x="1265.75" y="885" as="targetPoint" />
          </mxGeometry>
        </mxCell>
        <mxCell id="M_9KOcnQaPbsYo9cMEfQ-31" value="工单去重" style="edgeLabel;resizable=0;html=1;align=center;verticalAlign=middle;" connectable="0" vertex="1" parent="M_9KOcnQaPbsYo9cMEfQ-30">
          <mxGeometry relative="1" as="geometry" />
        </mxCell>
        <mxCell id="M_9KOcnQaPbsYo9cMEfQ-41" value="" style="endArrow=classic;html=1;entryX=0.5;entryY=1;entryDx=0;entryDy=0;" edge="1" parent="1" target="78961159f06e98e8-43">
          <mxGeometry relative="1" as="geometry">
            <mxPoint x="260" y="970" as="sourcePoint" />
            <mxPoint x="380" y="970" as="targetPoint" />
          </mxGeometry>
        </mxCell>
        <mxCell id="M_9KOcnQaPbsYo9cMEfQ-42" value="union" style="edgeLabel;resizable=0;html=1;align=center;verticalAlign=middle;" connectable="0" vertex="1" parent="M_9KOcnQaPbsYo9cMEfQ-41">
          <mxGeometry relative="1" as="geometry" />
        </mxCell>
        <mxCell id="M_9KOcnQaPbsYo9cMEfQ-103" style="edgeStyle=orthogonalEdgeStyle;rounded=0;orthogonalLoop=1;jettySize=auto;html=1;exitX=0.5;exitY=0;exitDx=0;exitDy=0;entryX=0.5;entryY=0;entryDx=0;entryDy=0;dashed=1;startArrow=none;startFill=0;endArrow=classic;endFill=1;" edge="1" parent="1" source="78961159f06e98e8-43" target="M_9KOcnQaPbsYo9cMEfQ-94">
          <mxGeometry relative="1" as="geometry" />
        </mxCell>
        <mxCell id="M_9KOcnQaPbsYo9cMEfQ-48" value="" style="endArrow=classic;html=1;entryX=0.5;entryY=1;entryDx=0;entryDy=0;" edge="1" parent="1">
          <mxGeometry relative="1" as="geometry">
            <mxPoint x="1667" y="953" as="sourcePoint" />
            <mxPoint x="1666.5" y="881" as="targetPoint" />
          </mxGeometry>
        </mxCell>
        <mxCell id="M_9KOcnQaPbsYo9cMEfQ-49" value="union" style="edgeLabel;resizable=0;html=1;align=center;verticalAlign=middle;" connectable="0" vertex="1" parent="M_9KOcnQaPbsYo9cMEfQ-48">
          <mxGeometry relative="1" as="geometry" />
        </mxCell>
        <mxCell id="M_9KOcnQaPbsYo9cMEfQ-50" style="rounded=0;orthogonalLoop=1;jettySize=auto;html=1;exitX=0.5;exitY=0;exitDx=0;exitDy=0;entryX=0.5;entryY=0;entryDx=0;entryDy=0;verticalAlign=middle;endArrow=none;endFill=0;edgeStyle=orthogonalEdgeStyle;" edge="1" parent="1" source="78961159f06e98e8-108" target="78961159f06e98e8-82">
          <mxGeometry relative="1" as="geometry">
            <mxPoint x="1555.75" y="985" as="sourcePoint" />
            <mxPoint x="1778.25" y="989" as="targetPoint" />
            <Array as="points">
              <mxPoint x="1565" y="949" />
              <mxPoint x="1762" y="949" />
            </Array>
          </mxGeometry>
        </mxCell>
        <mxCell id="M_9KOcnQaPbsYo9cMEfQ-60" value="订单去重" style="text;html=1;strokeColor=none;fillColor=none;align=center;verticalAlign=middle;whiteSpace=wrap;rounded=0;" vertex="1" parent="1">
          <mxGeometry x="100" y="980" width="50" height="20" as="geometry" />
        </mxCell>
        <mxCell id="M_9KOcnQaPbsYo9cMEfQ-61" value="订单去重" style="text;html=1;strokeColor=none;fillColor=none;align=center;verticalAlign=middle;whiteSpace=wrap;rounded=0;" vertex="1" parent="1">
          <mxGeometry x="370" y="980" width="60" height="20" as="geometry" />
        </mxCell>
        <mxCell id="M_9KOcnQaPbsYo9cMEfQ-69" value="" style="endArrow=classic;html=1;entryX=0.5;entryY=1;entryDx=0;entryDy=0;exitX=0.5;exitY=0;exitDx=0;exitDy=0;" edge="1" source="M_9KOcnQaPbsYo9cMEfQ-64" target="M_9KOcnQaPbsYo9cMEfQ-71" parent="1">
          <mxGeometry relative="1" as="geometry">
            <mxPoint x="2053.75" y="992" as="sourcePoint" />
            <mxPoint x="2023.75" y="885" as="targetPoint" />
          </mxGeometry>
        </mxCell>
        <mxCell id="M_9KOcnQaPbsYo9cMEfQ-70" value="订单去重" style="edgeLabel;resizable=0;html=1;align=center;verticalAlign=middle;" connectable="0" vertex="1" parent="M_9KOcnQaPbsYo9cMEfQ-69">
          <mxGeometry relative="1" as="geometry" />
        </mxCell>
        <mxCell id="M_9KOcnQaPbsYo9cMEfQ-82" value="" style="endArrow=classic;html=1;" edge="1" parent="1">
          <mxGeometry relative="1" as="geometry">
            <mxPoint x="1293" y="720" as="sourcePoint" />
            <mxPoint x="1293" y="580" as="targetPoint" />
          </mxGeometry>
        </mxCell>
        <mxCell id="M_9KOcnQaPbsYo9cMEfQ-83" value="group by reason" style="edgeLabel;resizable=0;html=1;align=center;verticalAlign=middle;" connectable="0" vertex="1" parent="M_9KOcnQaPbsYo9cMEfQ-82">
          <mxGeometry relative="1" as="geometry" />
        </mxCell>
        <mxCell id="M_9KOcnQaPbsYo9cMEfQ-84" value="left join" style="text;html=1;strokeColor=none;fillColor=none;align=center;verticalAlign=middle;whiteSpace=wrap;rounded=0;" vertex="1" parent="1">
          <mxGeometry x="1230" y="730" width="62" height="20" as="geometry" />
        </mxCell>
        <mxCell id="M_9KOcnQaPbsYo9cMEfQ-85" value="left join" style="text;html=1;strokeColor=none;fillColor=none;align=center;verticalAlign=middle;whiteSpace=wrap;rounded=0;" vertex="1" parent="1">
          <mxGeometry x="1610" y="720" width="62" height="20" as="geometry" />
        </mxCell>
        <mxCell id="M_9KOcnQaPbsYo9cMEfQ-86" style="edgeStyle=orthogonalEdgeStyle;rounded=0;html=1;labelBackgroundColor=none;startArrow=none;startFill=0;startSize=8;endArrow=classic;endFill=1;endSize=16;fontFamily=Verdana;fontSize=12;exitX=0.5;exitY=0;exitDx=0;exitDy=0;entryX=0.5;entryY=0;entryDx=0;entryDy=0;" edge="1" parent="1" target="78961159f06e98e8-17">
          <mxGeometry relative="1" as="geometry">
            <Array as="points">
              <mxPoint x="1292" y="720" />
              <mxPoint x="1667" y="720" />
            </Array>
            <mxPoint x="1292" y="770" as="sourcePoint" />
            <mxPoint x="1703.25" y="770" as="targetPoint" />
          </mxGeometry>
        </mxCell>
        <mxCell id="M_9KOcnQaPbsYo9cMEfQ-87" value="" style="endArrow=classic;html=1;entryX=0.5;entryY=1;entryDx=0;entryDy=0;exitX=0.5;exitY=0;exitDx=0;exitDy=0;" edge="1" source="M_9KOcnQaPbsYo9cMEfQ-89" target="M_9KOcnQaPbsYo9cMEfQ-94" parent="1">
          <mxGeometry relative="1" as="geometry">
            <mxPoint x="813.75" y="999" as="sourcePoint" />
            <mxPoint x="783.75" y="892" as="targetPoint" />
          </mxGeometry>
        </mxCell>
        <mxCell id="M_9KOcnQaPbsYo9cMEfQ-88" value="订单去重" style="edgeLabel;resizable=0;html=1;align=center;verticalAlign=middle;" connectable="0" vertex="1" parent="M_9KOcnQaPbsYo9cMEfQ-87">
          <mxGeometry relative="1" as="geometry" />
        </mxCell>
        <mxCell id="M_9KOcnQaPbsYo9cMEfQ-101" value="left join" style="text;html=1;strokeColor=none;fillColor=none;align=center;verticalAlign=middle;whiteSpace=wrap;rounded=0;" vertex="1" parent="1">
          <mxGeometry x="750" y="757" width="62" height="20" as="geometry" />
        </mxCell>
        <mxCell id="M_9KOcnQaPbsYo9cMEfQ-110" value="" style="endArrow=classic;html=1;dashed=1;" edge="1" parent="1">
          <mxGeometry relative="1" as="geometry">
            <mxPoint x="811" y="760" as="sourcePoint" />
            <mxPoint x="811" y="580" as="targetPoint" />
          </mxGeometry>
        </mxCell>
        <mxCell id="M_9KOcnQaPbsYo9cMEfQ-111" value="group by reason" style="edgeLabel;resizable=0;html=1;align=center;verticalAlign=middle;" connectable="0" vertex="1" parent="M_9KOcnQaPbsYo9cMEfQ-110">
          <mxGeometry relative="1" as="geometry" />
        </mxCell>
        <mxCell id="M_9KOcnQaPbsYo9cMEfQ-112" style="edgeStyle=orthogonalEdgeStyle;rounded=0;orthogonalLoop=1;jettySize=auto;html=1;entryX=0.5;entryY=0;entryDx=0;entryDy=0;dashed=1;startArrow=none;startFill=0;endArrow=classic;endFill=1;dashPattern=1 4;" edge="1" parent="1" target="M_9KOcnQaPbsYo9cMEfQ-71">
          <mxGeometry relative="1" as="geometry">
            <mxPoint x="260" y="770" as="sourcePoint" />
            <mxPoint x="821.25" y="787" as="targetPoint" />
            <Array as="points">
              <mxPoint x="260" y="630" />
              <mxPoint x="2051" y="630" />
            </Array>
          </mxGeometry>
        </mxCell>
        <mxCell id="M_9KOcnQaPbsYo9cMEfQ-113" value="left join" style="text;html=1;strokeColor=none;fillColor=none;align=center;verticalAlign=middle;whiteSpace=wrap;rounded=0;" vertex="1" parent="1">
          <mxGeometry x="1990" y="730" width="62" height="20" as="geometry" />
        </mxCell>
        <mxCell id="M_9KOcnQaPbsYo9cMEfQ-119" value="" style="endArrow=classic;html=1;dashed=1;dashPattern=1 4;exitX=0.5;exitY=0;exitDx=0;exitDy=0;" edge="1" parent="1" source="M_9KOcnQaPbsYo9cMEfQ-71">
          <mxGeometry relative="1" as="geometry">
            <mxPoint x="2050" y="720" as="sourcePoint" />
            <mxPoint x="2050" y="580" as="targetPoint" />
          </mxGeometry>
        </mxCell>
        <mxCell id="M_9KOcnQaPbsYo9cMEfQ-120" value="group by reason" style="edgeLabel;resizable=0;html=1;align=center;verticalAlign=middle;" connectable="0" vertex="1" parent="M_9KOcnQaPbsYo9cMEfQ-119">
          <mxGeometry relative="1" as="geometry" />
        </mxCell>
        <mxCell id="M_9KOcnQaPbsYo9cMEfQ-121" style="edgeStyle=orthogonalEdgeStyle;rounded=0;orthogonalLoop=1;jettySize=auto;html=1;entryX=0;entryY=0;entryDx=0;entryDy=0;startArrow=classic;startFill=1;endArrow=none;endFill=0;exitX=0;exitY=0;exitDx=0;exitDy=0;" edge="1" parent="1" source="78961159f06e98e8-43" target="M_9KOcnQaPbsYo9cMEfQ-71">
          <mxGeometry relative="1" as="geometry">
            <mxPoint x="130" y="750" as="sourcePoint" />
            <mxPoint x="1921.25" y="750" as="targetPoint" />
            <Array as="points">
              <mxPoint x="90" y="610" />
              <mxPoint x="1890" y="610" />
            </Array>
          </mxGeometry>
        </mxCell>
        <mxCell id="M_9KOcnQaPbsYo9cMEfQ-122" value="left join" style="text;html=1;strokeColor=none;fillColor=none;align=center;verticalAlign=middle;whiteSpace=wrap;rounded=0;" vertex="1" parent="1">
          <mxGeometry x="80" y="740" width="62" height="20" as="geometry" />
        </mxCell>
        <mxCell id="M_9KOcnQaPbsYo9cMEfQ-128" value="" style="endArrow=classic;html=1;" edge="1" parent="1">
          <mxGeometry relative="1" as="geometry">
            <mxPoint x="230" y="610" as="sourcePoint" />
            <mxPoint x="230" y="580" as="targetPoint" />
          </mxGeometry>
        </mxCell>
        <mxCell id="M_9KOcnQaPbsYo9cMEfQ-129" value="group by reason" style="edgeLabel;resizable=0;html=1;align=center;verticalAlign=middle;" connectable="0" vertex="1" parent="M_9KOcnQaPbsYo9cMEfQ-128">
          <mxGeometry relative="1" as="geometry" />
        </mxCell>
        <mxCell id="235556782a83e6d0-1" value="聚合风控社交密码前/后干预数据" style="swimlane;html=1;fontStyle=1;align=center;verticalAlign=top;childLayout=stackLayout;horizontal=1;startSize=26;horizontalStack=0;resizeParent=1;resizeLast=0;collapsible=1;marginBottom=0;swimlaneFillColor=#ffffff;rounded=0;shadow=0;comic=0;labelBackgroundColor=none;strokeWidth=1;fillColor=none;fontFamily=Verdana;fontSize=12" parent="1" vertex="1">
          <mxGeometry x="50" y="1006" width="200" height="132" as="geometry" />
        </mxCell>
        <mxCell id="235556782a83e6d0-2" value="wxg_wechat_pay_base_interface" style="text;html=1;strokeColor=none;fillColor=none;align=left;verticalAlign=top;spacingLeft=4;spacingRight=4;whiteSpace=wrap;overflow=hidden;rotatable=0;points=[[0,0.5],[1,0.5]];portConstraint=eastwest;" parent="235556782a83e6d0-1" vertex="1">
          <mxGeometry y="26" width="200" height="26" as="geometry" />
        </mxCell>
        <mxCell id="235556782a83e6d0-3" value="log_18508" style="text;html=1;strokeColor=none;fillColor=none;align=left;verticalAlign=top;spacingLeft=4;spacingRight=4;whiteSpace=wrap;overflow=hidden;rotatable=0;points=[[0,0.5],[1,0.5]];portConstraint=eastwest;" parent="235556782a83e6d0-1" vertex="1">
          <mxGeometry y="52" width="200" height="26" as="geometry" />
        </mxCell>
        <mxCell id="M_9KOcnQaPbsYo9cMEfQ-1" value="" style="line;html=1;strokeWidth=1;fillColor=none;align=left;verticalAlign=middle;spacingTop=-1;spacingLeft=3;spacingRight=3;rotatable=0;labelPosition=right;points=[];portConstraint=eastwest;" vertex="1" parent="235556782a83e6d0-1">
          <mxGeometry y="78" width="200" height="8" as="geometry" />
        </mxCell>
        <mxCell id="M_9KOcnQaPbsYo9cMEfQ-2" value="PK&amp;nbsp; ds,outradenum,trasactionid" style="text;html=1;strokeColor=none;fillColor=none;align=left;verticalAlign=top;spacingLeft=4;spacingRight=4;whiteSpace=wrap;overflow=hidden;rotatable=0;points=[[0,0.5],[1,0.5]];portConstraint=eastwest;" vertex="1" parent="235556782a83e6d0-1">
          <mxGeometry y="86" width="200" height="26" as="geometry" />
        </mxCell>
        <mxCell id="78961159f06e98e8-69" value="FIT风控密码后干预数据" style="swimlane;html=1;fontStyle=1;align=center;verticalAlign=top;childLayout=stackLayout;horizontal=1;startSize=26;horizontalStack=0;resizeParent=1;resizeLast=0;collapsible=1;marginBottom=0;swimlaneFillColor=#ffffff;rounded=0;shadow=0;comic=0;labelBackgroundColor=none;strokeWidth=1;fillColor=none;fontFamily=Verdana;fontSize=12" parent="1" vertex="1">
          <mxGeometry x="275" y="1010" width="195" height="120" as="geometry">
            <mxRectangle x="255" y="440" width="160" height="26" as="alternateBounds" />
          </mxGeometry>
        </mxCell>
        <mxCell id="M_9KOcnQaPbsYo9cMEfQ-3" value="wxg_wechat_pay_base_interface" style="text;html=1;strokeColor=none;fillColor=none;align=left;verticalAlign=top;spacingLeft=4;spacingRight=4;whiteSpace=wrap;overflow=hidden;rotatable=0;points=[[0,0.5],[1,0.5]];portConstraint=eastwest;" vertex="1" parent="78961159f06e98e8-69">
          <mxGeometry y="26" width="195" height="26" as="geometry" />
        </mxCell>
        <mxCell id="M_9KOcnQaPbsYo9cMEfQ-7" value="log_18202" style="text;html=1;strokeColor=none;fillColor=none;align=left;verticalAlign=top;spacingLeft=4;spacingRight=4;whiteSpace=wrap;overflow=hidden;rotatable=0;points=[[0,0.5],[1,0.5]];portConstraint=eastwest;" vertex="1" parent="78961159f06e98e8-69">
          <mxGeometry y="52" width="195" height="30" as="geometry" />
        </mxCell>
        <mxCell id="78961159f06e98e8-77" value="" style="line;html=1;strokeWidth=1;fillColor=none;align=left;verticalAlign=middle;spacingTop=-1;spacingLeft=3;spacingRight=3;rotatable=0;labelPosition=right;points=[];portConstraint=eastwest;" parent="78961159f06e98e8-69" vertex="1">
          <mxGeometry y="82" width="195" height="8" as="geometry" />
        </mxCell>
        <mxCell id="M_9KOcnQaPbsYo9cMEfQ-9" value="PK ds,transationid" style="text;html=1;strokeColor=none;fillColor=none;align=left;verticalAlign=top;spacingLeft=4;spacingRight=4;whiteSpace=wrap;overflow=hidden;rotatable=0;points=[[0,0.5],[1,0.5]];portConstraint=eastwest;" vertex="1" parent="78961159f06e98e8-69">
          <mxGeometry y="90" width="195" height="30" as="geometry" />
        </mxCell>
        <mxCell id="78961159f06e98e8-43" value="&lt;div&gt;清洗后的干预数据(hour)&lt;/div&gt;" style="swimlane;html=1;fontStyle=1;align=center;verticalAlign=top;childLayout=stackLayout;horizontal=1;startSize=26;horizontalStack=0;resizeParent=1;resizeLast=0;collapsible=1;marginBottom=0;swimlaneFillColor=#ffffff;rounded=0;shadow=0;comic=0;labelBackgroundColor=none;strokeWidth=1;fillColor=none;fontFamily=Verdana;fontSize=12" parent="1" vertex="1">
          <mxGeometry x="90" y="777" width="340" height="120" as="geometry" />
        </mxCell>
        <mxCell id="78961159f06e98e8-44" value="&lt;span&gt;wxg_wechat_pay_security_app&lt;/span&gt;" style="text;html=1;strokeColor=none;fillColor=none;align=left;verticalAlign=top;spacingLeft=4;spacingRight=4;whiteSpace=wrap;overflow=hidden;rotatable=0;points=[[0,0.5],[1,0.5]];portConstraint=eastwest;" parent="78961159f06e98e8-43" vertex="1">
          <mxGeometry y="26" width="340" height="26" as="geometry" />
        </mxCell>
        <mxCell id="78961159f06e98e8-52" value="t_dw_risk_aggr_sns_pay_wxsec_cft_block_detail_hour" style="text;html=1;strokeColor=none;fillColor=none;align=left;verticalAlign=top;spacingLeft=4;spacingRight=4;whiteSpace=wrap;overflow=hidden;rotatable=0;points=[[0,0.5],[1,0.5]];portConstraint=eastwest;" parent="78961159f06e98e8-43" vertex="1">
          <mxGeometry y="52" width="340" height="26" as="geometry" />
        </mxCell>
        <mxCell id="78961159f06e98e8-51" value="" style="line;html=1;strokeWidth=1;fillColor=none;align=left;verticalAlign=middle;spacingTop=-1;spacingLeft=3;spacingRight=3;rotatable=0;labelPosition=right;points=[];portConstraint=eastwest;" parent="78961159f06e98e8-43" vertex="1">
          <mxGeometry y="78" width="340" height="8" as="geometry" />
        </mxCell>
        <mxCell id="78961159f06e98e8-45" value="PK&amp;nbsp; ds,outradenum,trasactionid" style="text;html=1;strokeColor=none;fillColor=none;align=left;verticalAlign=top;spacingLeft=4;spacingRight=4;whiteSpace=wrap;overflow=hidden;rotatable=0;points=[[0,0.5],[1,0.5]];portConstraint=eastwest;" parent="78961159f06e98e8-43" vertex="1">
          <mxGeometry y="86" width="340" height="26" as="geometry" />
        </mxCell>
        <mxCell id="M_9KOcnQaPbsYo9cMEfQ-64" value="全渠道投诉数据(hour)" style="swimlane;html=1;fontStyle=1;align=center;verticalAlign=top;childLayout=stackLayout;horizontal=1;startSize=26;horizontalStack=0;resizeParent=1;resizeLast=0;collapsible=1;marginBottom=0;swimlaneFillColor=#ffffff;rounded=0;shadow=0;comic=0;labelBackgroundColor=none;strokeWidth=1;fillColor=none;fontFamily=Verdana;fontSize=12" vertex="1" parent="1">
          <mxGeometry x="1943.75" y="999" width="215" height="112" as="geometry" />
        </mxCell>
        <mxCell id="M_9KOcnQaPbsYo9cMEfQ-65" value="wxg_wechat_pay_base_interface" style="text;html=1;strokeColor=none;fillColor=none;align=left;verticalAlign=top;spacingLeft=4;spacingRight=4;whiteSpace=wrap;overflow=hidden;rotatable=0;points=[[0,0.5],[1,0.5]];portConstraint=eastwest;" vertex="1" parent="M_9KOcnQaPbsYo9cMEfQ-64">
          <mxGeometry y="26" width="215" height="26" as="geometry" />
        </mxCell>
        <mxCell id="M_9KOcnQaPbsYo9cMEfQ-66" value="log_20471" style="text;html=1;strokeColor=none;fillColor=none;align=left;verticalAlign=top;spacingLeft=4;spacingRight=4;whiteSpace=wrap;overflow=hidden;rotatable=0;points=[[0,0.5],[1,0.5]];portConstraint=eastwest;" vertex="1" parent="M_9KOcnQaPbsYo9cMEfQ-64">
          <mxGeometry y="52" width="215" height="26" as="geometry" />
        </mxCell>
        <mxCell id="M_9KOcnQaPbsYo9cMEfQ-67" value="" style="line;html=1;strokeWidth=1;fillColor=none;align=left;verticalAlign=middle;spacingTop=-1;spacingLeft=3;spacingRight=3;rotatable=0;labelPosition=right;points=[];portConstraint=eastwest;" vertex="1" parent="M_9KOcnQaPbsYo9cMEfQ-64">
          <mxGeometry y="78" width="215" height="8" as="geometry" />
        </mxCell>
        <mxCell id="M_9KOcnQaPbsYo9cMEfQ-68" value="PK ds,订单号" style="text;html=1;strokeColor=none;fillColor=none;align=left;verticalAlign=top;spacingLeft=4;spacingRight=4;whiteSpace=wrap;overflow=hidden;rotatable=0;points=[[0,0.5],[1,0.5]];portConstraint=eastwest;" vertex="1" parent="M_9KOcnQaPbsYo9cMEfQ-64">
          <mxGeometry y="86" width="215" height="26" as="geometry" />
        </mxCell>
        <mxCell id="M_9KOcnQaPbsYo9cMEfQ-71" value="清洗后投诉数据(day)" style="swimlane;html=1;fontStyle=1;align=center;verticalAlign=top;childLayout=stackLayout;horizontal=1;startSize=26;horizontalStack=0;resizeParent=1;resizeLast=0;collapsible=1;marginBottom=0;swimlaneFillColor=#ffffff;rounded=0;shadow=0;comic=0;labelBackgroundColor=none;strokeWidth=1;fillColor=none;fontFamily=Verdana;fontSize=12" vertex="1" parent="1">
          <mxGeometry x="1890" y="770" width="322.5" height="118" as="geometry" />
        </mxCell>
        <mxCell id="M_9KOcnQaPbsYo9cMEfQ-72" value="wxg_wechat_pay_security_app" style="text;html=1;strokeColor=none;fillColor=none;align=left;verticalAlign=top;spacingLeft=4;spacingRight=4;whiteSpace=wrap;overflow=hidden;rotatable=0;points=[[0,0.5],[1,0.5]];portConstraint=eastwest;" vertex="1" parent="M_9KOcnQaPbsYo9cMEfQ-71">
          <mxGeometry y="26" width="322.5" height="26" as="geometry" />
        </mxCell>
        <mxCell id="M_9KOcnQaPbsYo9cMEfQ-73" value="t_dm_complaint_all_day" style="text;html=1;strokeColor=none;fillColor=none;align=left;verticalAlign=top;spacingLeft=4;spacingRight=4;whiteSpace=wrap;overflow=hidden;rotatable=0;points=[[0,0.5],[1,0.5]];portConstraint=eastwest;" vertex="1" parent="M_9KOcnQaPbsYo9cMEfQ-71">
          <mxGeometry y="52" width="322.5" height="26" as="geometry" />
        </mxCell>
        <mxCell id="M_9KOcnQaPbsYo9cMEfQ-74" value="" style="line;html=1;strokeWidth=1;fillColor=none;align=left;verticalAlign=middle;spacingTop=-1;spacingLeft=3;spacingRight=3;rotatable=0;labelPosition=right;points=[];portConstraint=eastwest;" vertex="1" parent="M_9KOcnQaPbsYo9cMEfQ-71">
          <mxGeometry y="78" width="322.5" height="8" as="geometry" />
        </mxCell>
        <mxCell id="M_9KOcnQaPbsYo9cMEfQ-75" value="PK&amp;nbsp; ds,订单号" style="text;html=1;strokeColor=none;fillColor=none;align=left;verticalAlign=top;spacingLeft=4;spacingRight=4;whiteSpace=wrap;overflow=hidden;rotatable=0;points=[[0,0.5],[1,0.5]];portConstraint=eastwest;" vertex="1" parent="M_9KOcnQaPbsYo9cMEfQ-71">
          <mxGeometry y="86" width="322.5" height="26" as="geometry" />
        </mxCell>
        <mxCell id="78961159f06e98e8-108" value="微信安全人工解脱数据" style="swimlane;html=1;fontStyle=1;align=center;verticalAlign=top;childLayout=stackLayout;horizontal=1;startSize=26;horizontalStack=0;resizeParent=1;resizeLast=0;collapsible=1;marginBottom=0;swimlaneFillColor=#ffffff;rounded=0;shadow=0;comic=0;labelBackgroundColor=none;strokeWidth=1;fillColor=none;fontFamily=Verdana;fontSize=12" parent="1" vertex="1">
          <mxGeometry x="1482" y="989" width="165" height="114" as="geometry" />
        </mxCell>
        <mxCell id="78961159f06e98e8-109" value="wxg_security_secretdata" style="text;html=1;strokeColor=none;fillColor=none;align=left;verticalAlign=top;spacingLeft=4;spacingRight=4;whiteSpace=wrap;overflow=hidden;rotatable=0;points=[[0,0.5],[1,0.5]];portConstraint=eastwest;" parent="78961159f06e98e8-108" vertex="1">
          <mxGeometry y="26" width="165" height="26" as="geometry" />
        </mxCell>
        <mxCell id="78961159f06e98e8-110" value="log_18777" style="text;html=1;strokeColor=none;fillColor=none;align=left;verticalAlign=top;spacingLeft=4;spacingRight=4;whiteSpace=wrap;overflow=hidden;rotatable=0;points=[[0,0.5],[1,0.5]];portConstraint=eastwest;" parent="78961159f06e98e8-108" vertex="1">
          <mxGeometry y="52" width="165" height="26" as="geometry" />
        </mxCell>
        <mxCell id="78961159f06e98e8-116" value="" style="line;html=1;strokeWidth=1;fillColor=none;align=left;verticalAlign=middle;spacingTop=-1;spacingLeft=3;spacingRight=3;rotatable=0;labelPosition=right;points=[];portConstraint=eastwest;" parent="78961159f06e98e8-108" vertex="1">
          <mxGeometry y="78" width="165" height="8" as="geometry" />
        </mxCell>
        <mxCell id="78961159f06e98e8-117" value="PK&amp;nbsp; ds,uin,工单号" style="text;html=1;strokeColor=none;fillColor=none;align=left;verticalAlign=top;spacingLeft=4;spacingRight=4;whiteSpace=wrap;overflow=hidden;rotatable=0;points=[[0,0.5],[1,0.5]];portConstraint=eastwest;" parent="78961159f06e98e8-108" vertex="1">
          <mxGeometry y="86" width="165" height="26" as="geometry" />
        </mxCell>
        <mxCell id="78961159f06e98e8-82" value="微信安全自助解脱数据" style="swimlane;html=1;fontStyle=1;align=center;verticalAlign=top;childLayout=stackLayout;horizontal=1;startSize=26;horizontalStack=0;resizeParent=1;resizeLast=0;collapsible=1;marginBottom=0;swimlaneFillColor=#ffffff;rounded=0;shadow=0;comic=0;labelBackgroundColor=none;strokeWidth=1;fillColor=none;fontFamily=Verdana;fontSize=12" parent="1" vertex="1">
          <mxGeometry x="1667" y="988" width="190" height="115" as="geometry" />
        </mxCell>
        <mxCell id="78961159f06e98e8-84" value="wxg_wechat_pay_base_interface" style="text;html=1;strokeColor=none;fillColor=none;align=left;verticalAlign=top;spacingLeft=4;spacingRight=4;whiteSpace=wrap;overflow=hidden;rotatable=0;points=[[0,0.5],[1,0.5]];portConstraint=eastwest;" parent="78961159f06e98e8-82" vertex="1">
          <mxGeometry y="26" width="190" height="26" as="geometry" />
        </mxCell>
        <mxCell id="78961159f06e98e8-89" value="log_18464" style="text;html=1;strokeColor=none;fillColor=none;align=left;verticalAlign=top;spacingLeft=4;spacingRight=4;whiteSpace=wrap;overflow=hidden;rotatable=0;points=[[0,0.5],[1,0.5]];portConstraint=eastwest;" parent="78961159f06e98e8-82" vertex="1">
          <mxGeometry y="52" width="190" height="26" as="geometry" />
        </mxCell>
        <mxCell id="78961159f06e98e8-90" value="" style="line;html=1;strokeWidth=1;fillColor=none;align=left;verticalAlign=middle;spacingTop=-1;spacingLeft=3;spacingRight=3;rotatable=0;labelPosition=right;points=[];portConstraint=eastwest;" parent="78961159f06e98e8-82" vertex="1">
          <mxGeometry y="78" width="190" height="8" as="geometry" />
        </mxCell>
        <mxCell id="78961159f06e98e8-94" value="PK&amp;nbsp; ds,uin" style="text;html=1;strokeColor=none;fillColor=none;align=left;verticalAlign=top;spacingLeft=4;spacingRight=4;whiteSpace=wrap;overflow=hidden;rotatable=0;points=[[0,0.5],[1,0.5]];portConstraint=eastwest;" parent="78961159f06e98e8-82" vertex="1">
          <mxGeometry y="86" width="190" height="26" as="geometry" />
        </mxCell>
        <mxCell id="78961159f06e98e8-17" value="清洗后微信安全解脱数据(hour)" style="swimlane;html=1;fontStyle=1;align=center;verticalAlign=top;childLayout=stackLayout;horizontal=1;startSize=26;horizontalStack=0;resizeParent=1;resizeLast=0;collapsible=1;marginBottom=0;swimlaneFillColor=#ffffff;rounded=0;shadow=0;comic=0;labelBackgroundColor=none;strokeWidth=1;fillColor=none;fontFamily=Verdana;fontSize=12" parent="1" vertex="1">
          <mxGeometry x="1567" y="763" width="200" height="118" as="geometry" />
        </mxCell>
        <mxCell id="78961159f06e98e8-23" value="wxg_wechat_pay_security_app" style="text;html=1;strokeColor=none;fillColor=none;align=left;verticalAlign=top;spacingLeft=4;spacingRight=4;whiteSpace=wrap;overflow=hidden;rotatable=0;points=[[0,0.5],[1,0.5]];portConstraint=eastwest;" parent="78961159f06e98e8-17" vertex="1">
          <mxGeometry y="26" width="200" height="26" as="geometry" />
        </mxCell>
        <mxCell id="78961159f06e98e8-24" value="t_dw_risk_aggr_wxsec_unblock_detail_hour" style="text;html=1;strokeColor=none;fillColor=none;align=left;verticalAlign=top;spacingLeft=4;spacingRight=4;whiteSpace=wrap;overflow=hidden;rotatable=0;points=[[0,0.5],[1,0.5]];portConstraint=eastwest;" parent="78961159f06e98e8-17" vertex="1">
          <mxGeometry y="52" width="200" height="26" as="geometry" />
        </mxCell>
        <mxCell id="78961159f06e98e8-19" value="" style="line;html=1;strokeWidth=1;fillColor=none;align=left;verticalAlign=middle;spacingTop=-1;spacingLeft=3;spacingRight=3;rotatable=0;labelPosition=right;points=[];portConstraint=eastwest;" parent="78961159f06e98e8-17" vertex="1">
          <mxGeometry y="78" width="200" height="8" as="geometry" />
        </mxCell>
        <mxCell id="78961159f06e98e8-27" value="PK&amp;nbsp; ds,uin,工单号" style="text;html=1;strokeColor=none;fillColor=none;align=left;verticalAlign=top;spacingLeft=4;spacingRight=4;whiteSpace=wrap;overflow=hidden;rotatable=0;points=[[0,0.5],[1,0.5]];portConstraint=eastwest;" parent="78961159f06e98e8-17" vertex="1">
          <mxGeometry y="86" width="200" height="26" as="geometry" />
        </mxCell>
        <mxCell id="78961159f06e98e8-95" value="欺诈类客服申诉数据(hour)" style="swimlane;html=1;fontStyle=1;align=center;verticalAlign=top;childLayout=stackLayout;horizontal=1;startSize=26;horizontalStack=0;resizeParent=1;resizeLast=0;collapsible=1;marginBottom=0;swimlaneFillColor=#ffffff;rounded=0;shadow=0;comic=0;labelBackgroundColor=none;strokeWidth=1;fillColor=none;fontFamily=Verdana;fontSize=12" parent="1" vertex="1">
          <mxGeometry x="1185.75" y="999" width="215" height="112" as="geometry" />
        </mxCell>
        <mxCell id="78961159f06e98e8-96" value="wxg_wechat_pay_base_interface" style="text;html=1;strokeColor=none;fillColor=none;align=left;verticalAlign=top;spacingLeft=4;spacingRight=4;whiteSpace=wrap;overflow=hidden;rotatable=0;points=[[0,0.5],[1,0.5]];portConstraint=eastwest;" parent="78961159f06e98e8-95" vertex="1">
          <mxGeometry y="26" width="215" height="26" as="geometry" />
        </mxCell>
        <mxCell id="78961159f06e98e8-102" value="log_20173" style="text;html=1;strokeColor=none;fillColor=none;align=left;verticalAlign=top;spacingLeft=4;spacingRight=4;whiteSpace=wrap;overflow=hidden;rotatable=0;points=[[0,0.5],[1,0.5]];portConstraint=eastwest;" parent="78961159f06e98e8-95" vertex="1">
          <mxGeometry y="52" width="215" height="26" as="geometry" />
        </mxCell>
        <mxCell id="78961159f06e98e8-103" value="" style="line;html=1;strokeWidth=1;fillColor=none;align=left;verticalAlign=middle;spacingTop=-1;spacingLeft=3;spacingRight=3;rotatable=0;labelPosition=right;points=[];portConstraint=eastwest;" parent="78961159f06e98e8-95" vertex="1">
          <mxGeometry y="78" width="215" height="8" as="geometry" />
        </mxCell>
        <mxCell id="78961159f06e98e8-104" value="PK ds,工单号" style="text;html=1;strokeColor=none;fillColor=none;align=left;verticalAlign=top;spacingLeft=4;spacingRight=4;whiteSpace=wrap;overflow=hidden;rotatable=0;points=[[0,0.5],[1,0.5]];portConstraint=eastwest;" parent="78961159f06e98e8-95" vertex="1">
          <mxGeometry y="86" width="215" height="26" as="geometry" />
        </mxCell>
        <mxCell id="M_9KOcnQaPbsYo9cMEfQ-25" value="清洗后客服申诉数据(day)" style="swimlane;html=1;fontStyle=1;align=center;verticalAlign=top;childLayout=stackLayout;horizontal=1;startSize=26;horizontalStack=0;resizeParent=1;resizeLast=0;collapsible=1;marginBottom=0;swimlaneFillColor=#ffffff;rounded=0;shadow=0;comic=0;labelBackgroundColor=none;strokeWidth=1;fillColor=none;fontFamily=Verdana;fontSize=12" vertex="1" parent="1">
          <mxGeometry x="1132" y="770" width="322.5" height="118" as="geometry" />
        </mxCell>
        <mxCell id="M_9KOcnQaPbsYo9cMEfQ-26" value="wxg_wechat_pay_security_app" style="text;html=1;strokeColor=none;fillColor=none;align=left;verticalAlign=top;spacingLeft=4;spacingRight=4;whiteSpace=wrap;overflow=hidden;rotatable=0;points=[[0,0.5],[1,0.5]];portConstraint=eastwest;" vertex="1" parent="M_9KOcnQaPbsYo9cMEfQ-25">
          <mxGeometry y="26" width="322.5" height="26" as="geometry" />
        </mxCell>
        <mxCell id="M_9KOcnQaPbsYo9cMEfQ-27" value="t_dw_risk_aggr_block_cheat_appeal_detail_clean_day" style="text;html=1;strokeColor=none;fillColor=none;align=left;verticalAlign=top;spacingLeft=4;spacingRight=4;whiteSpace=wrap;overflow=hidden;rotatable=0;points=[[0,0.5],[1,0.5]];portConstraint=eastwest;" vertex="1" parent="M_9KOcnQaPbsYo9cMEfQ-25">
          <mxGeometry y="52" width="322.5" height="26" as="geometry" />
        </mxCell>
        <mxCell id="M_9KOcnQaPbsYo9cMEfQ-28" value="" style="line;html=1;strokeWidth=1;fillColor=none;align=left;verticalAlign=middle;spacingTop=-1;spacingLeft=3;spacingRight=3;rotatable=0;labelPosition=right;points=[];portConstraint=eastwest;" vertex="1" parent="M_9KOcnQaPbsYo9cMEfQ-25">
          <mxGeometry y="78" width="322.5" height="8" as="geometry" />
        </mxCell>
        <mxCell id="M_9KOcnQaPbsYo9cMEfQ-29" value="PK&amp;nbsp; ds,工单号" style="text;html=1;strokeColor=none;fillColor=none;align=left;verticalAlign=top;spacingLeft=4;spacingRight=4;whiteSpace=wrap;overflow=hidden;rotatable=0;points=[[0,0.5],[1,0.5]];portConstraint=eastwest;" vertex="1" parent="M_9KOcnQaPbsYo9cMEfQ-25">
          <mxGeometry y="86" width="322.5" height="26" as="geometry" />
        </mxCell>
        <mxCell id="M_9KOcnQaPbsYo9cMEfQ-89" value="支付大表(hour)" style="swimlane;html=1;fontStyle=1;align=center;verticalAlign=top;childLayout=stackLayout;horizontal=1;startSize=26;horizontalStack=0;resizeParent=1;resizeLast=0;collapsible=1;marginBottom=0;swimlaneFillColor=#ffffff;rounded=0;shadow=0;comic=0;labelBackgroundColor=none;strokeWidth=1;fillColor=none;fontFamily=Verdana;fontSize=12" vertex="1" parent="1">
          <mxGeometry x="703.75" y="1006" width="215" height="112" as="geometry" />
        </mxCell>
        <mxCell id="M_9KOcnQaPbsYo9cMEfQ-90" value="wxg_wechat_pay_base_interface" style="text;html=1;strokeColor=none;fillColor=none;align=left;verticalAlign=top;spacingLeft=4;spacingRight=4;whiteSpace=wrap;overflow=hidden;rotatable=0;points=[[0,0.5],[1,0.5]];portConstraint=eastwest;" vertex="1" parent="M_9KOcnQaPbsYo9cMEfQ-89">
          <mxGeometry y="26" width="215" height="26" as="geometry" />
        </mxCell>
        <mxCell id="M_9KOcnQaPbsYo9cMEfQ-91" value="log_10553" style="text;html=1;strokeColor=none;fillColor=none;align=left;verticalAlign=top;spacingLeft=4;spacingRight=4;whiteSpace=wrap;overflow=hidden;rotatable=0;points=[[0,0.5],[1,0.5]];portConstraint=eastwest;" vertex="1" parent="M_9KOcnQaPbsYo9cMEfQ-89">
          <mxGeometry y="52" width="215" height="26" as="geometry" />
        </mxCell>
        <mxCell id="M_9KOcnQaPbsYo9cMEfQ-92" value="" style="line;html=1;strokeWidth=1;fillColor=none;align=left;verticalAlign=middle;spacingTop=-1;spacingLeft=3;spacingRight=3;rotatable=0;labelPosition=right;points=[];portConstraint=eastwest;" vertex="1" parent="M_9KOcnQaPbsYo9cMEfQ-89">
          <mxGeometry y="78" width="215" height="8" as="geometry" />
        </mxCell>
        <mxCell id="M_9KOcnQaPbsYo9cMEfQ-93" value="PK ds,订单号" style="text;html=1;strokeColor=none;fillColor=none;align=left;verticalAlign=top;spacingLeft=4;spacingRight=4;whiteSpace=wrap;overflow=hidden;rotatable=0;points=[[0,0.5],[1,0.5]];portConstraint=eastwest;" vertex="1" parent="M_9KOcnQaPbsYo9cMEfQ-89">
          <mxGeometry y="86" width="215" height="26" as="geometry" />
        </mxCell>
        <mxCell id="M_9KOcnQaPbsYo9cMEfQ-94" value="清洗后社交场景支付成功数据(hour)" style="swimlane;html=1;fontStyle=1;align=center;verticalAlign=top;childLayout=stackLayout;horizontal=1;startSize=26;horizontalStack=0;resizeParent=1;resizeLast=0;collapsible=1;marginBottom=0;swimlaneFillColor=#ffffff;rounded=0;shadow=0;comic=0;labelBackgroundColor=none;strokeWidth=1;fillColor=none;fontFamily=Verdana;fontSize=12" vertex="1" parent="1">
          <mxGeometry x="650" y="777" width="322.5" height="118" as="geometry" />
        </mxCell>
        <mxCell id="M_9KOcnQaPbsYo9cMEfQ-95" value="wxg_wechat_pay_security_app" style="text;html=1;strokeColor=none;fillColor=none;align=left;verticalAlign=top;spacingLeft=4;spacingRight=4;whiteSpace=wrap;overflow=hidden;rotatable=0;points=[[0,0.5],[1,0.5]];portConstraint=eastwest;" vertex="1" parent="M_9KOcnQaPbsYo9cMEfQ-94">
          <mxGeometry y="26" width="322.5" height="26" as="geometry" />
        </mxCell>
        <mxCell id="M_9KOcnQaPbsYo9cMEfQ-96" value="t_dw_sns_pay_succ_detail_hour" style="text;html=1;strokeColor=none;fillColor=none;align=left;verticalAlign=top;spacingLeft=4;spacingRight=4;whiteSpace=wrap;overflow=hidden;rotatable=0;points=[[0,0.5],[1,0.5]];portConstraint=eastwest;" vertex="1" parent="M_9KOcnQaPbsYo9cMEfQ-94">
          <mxGeometry y="52" width="322.5" height="26" as="geometry" />
        </mxCell>
        <mxCell id="M_9KOcnQaPbsYo9cMEfQ-97" value="" style="line;html=1;strokeWidth=1;fillColor=none;align=left;verticalAlign=middle;spacingTop=-1;spacingLeft=3;spacingRight=3;rotatable=0;labelPosition=right;points=[];portConstraint=eastwest;" vertex="1" parent="M_9KOcnQaPbsYo9cMEfQ-94">
          <mxGeometry y="78" width="322.5" height="8" as="geometry" />
        </mxCell>
        <mxCell id="M_9KOcnQaPbsYo9cMEfQ-98" value="PK&amp;nbsp; ds,订单号" style="text;html=1;strokeColor=none;fillColor=none;align=left;verticalAlign=top;spacingLeft=4;spacingRight=4;whiteSpace=wrap;overflow=hidden;rotatable=0;points=[[0,0.5],[1,0.5]];portConstraint=eastwest;" vertex="1" parent="M_9KOcnQaPbsYo9cMEfQ-94">
          <mxGeometry y="86" width="322.5" height="26" as="geometry" />
        </mxCell>
        <mxCell id="M_9KOcnQaPbsYo9cMEfQ-76" value="&lt;div&gt;干预后策略解脱数据(day)&lt;/div&gt;" style="swimlane;html=1;fontStyle=1;align=center;verticalAlign=top;childLayout=stackLayout;horizontal=1;startSize=26;horizontalStack=0;resizeParent=1;resizeLast=0;collapsible=1;marginBottom=0;swimlaneFillColor=#ffffff;rounded=0;shadow=0;comic=0;labelBackgroundColor=none;strokeWidth=1;fillColor=none;fontFamily=Verdana;fontSize=12" vertex="1" parent="1">
          <mxGeometry x="1123.25" y="460" width="340" height="120" as="geometry" />
        </mxCell>
        <mxCell id="M_9KOcnQaPbsYo9cMEfQ-77" value="&lt;span&gt;wxg_wechat_pay_security_app&lt;/span&gt;" style="text;html=1;strokeColor=none;fillColor=none;align=left;verticalAlign=top;spacingLeft=4;spacingRight=4;whiteSpace=wrap;overflow=hidden;rotatable=0;points=[[0,0.5],[1,0.5]];portConstraint=eastwest;" vertex="1" parent="M_9KOcnQaPbsYo9cMEfQ-76">
          <mxGeometry y="26" width="340" height="26" as="geometry" />
        </mxCell>
        <mxCell id="M_9KOcnQaPbsYo9cMEfQ-78" value="t_dm_xxx_day" style="text;html=1;strokeColor=none;fillColor=none;align=left;verticalAlign=top;spacingLeft=4;spacingRight=4;whiteSpace=wrap;overflow=hidden;rotatable=0;points=[[0,0.5],[1,0.5]];portConstraint=eastwest;" vertex="1" parent="M_9KOcnQaPbsYo9cMEfQ-76">
          <mxGeometry y="52" width="340" height="26" as="geometry" />
        </mxCell>
        <mxCell id="M_9KOcnQaPbsYo9cMEfQ-79" value="" style="line;html=1;strokeWidth=1;fillColor=none;align=left;verticalAlign=middle;spacingTop=-1;spacingLeft=3;spacingRight=3;rotatable=0;labelPosition=right;points=[];portConstraint=eastwest;" vertex="1" parent="M_9KOcnQaPbsYo9cMEfQ-76">
          <mxGeometry y="78" width="340" height="8" as="geometry" />
        </mxCell>
        <mxCell id="M_9KOcnQaPbsYo9cMEfQ-80" value="PK&amp;nbsp; ds,biz_scene,pay_scene,reason" style="text;html=1;strokeColor=none;fillColor=none;align=left;verticalAlign=top;spacingLeft=4;spacingRight=4;whiteSpace=wrap;overflow=hidden;rotatable=0;points=[[0,0.5],[1,0.5]];portConstraint=eastwest;" vertex="1" parent="M_9KOcnQaPbsYo9cMEfQ-76">
          <mxGeometry y="86" width="340" height="26" as="geometry" />
        </mxCell>
        <mxCell id="M_9KOcnQaPbsYo9cMEfQ-105" value="&lt;div&gt;干预后策略支付成功数据(day)&lt;/div&gt;" style="swimlane;html=1;fontStyle=1;align=center;verticalAlign=top;childLayout=stackLayout;horizontal=1;startSize=26;horizontalStack=0;resizeParent=1;resizeLast=0;collapsible=1;marginBottom=0;swimlaneFillColor=#ffffff;rounded=0;shadow=0;comic=0;labelBackgroundColor=none;strokeWidth=1;fillColor=none;fontFamily=Verdana;fontSize=12" vertex="1" parent="1">
          <mxGeometry x="641.25" y="460" width="340" height="120" as="geometry" />
        </mxCell>
        <mxCell id="M_9KOcnQaPbsYo9cMEfQ-106" value="&lt;span&gt;wxg_wechat_pay_security_app&lt;/span&gt;" style="text;html=1;strokeColor=none;fillColor=none;align=left;verticalAlign=top;spacingLeft=4;spacingRight=4;whiteSpace=wrap;overflow=hidden;rotatable=0;points=[[0,0.5],[1,0.5]];portConstraint=eastwest;" vertex="1" parent="M_9KOcnQaPbsYo9cMEfQ-105">
          <mxGeometry y="26" width="340" height="26" as="geometry" />
        </mxCell>
        <mxCell id="M_9KOcnQaPbsYo9cMEfQ-107" value="t_dm_xxx_day" style="text;html=1;strokeColor=none;fillColor=none;align=left;verticalAlign=top;spacingLeft=4;spacingRight=4;whiteSpace=wrap;overflow=hidden;rotatable=0;points=[[0,0.5],[1,0.5]];portConstraint=eastwest;" vertex="1" parent="M_9KOcnQaPbsYo9cMEfQ-105">
          <mxGeometry y="52" width="340" height="26" as="geometry" />
        </mxCell>
        <mxCell id="M_9KOcnQaPbsYo9cMEfQ-108" value="" style="line;html=1;strokeWidth=1;fillColor=none;align=left;verticalAlign=middle;spacingTop=-1;spacingLeft=3;spacingRight=3;rotatable=0;labelPosition=right;points=[];portConstraint=eastwest;" vertex="1" parent="M_9KOcnQaPbsYo9cMEfQ-105">
          <mxGeometry y="78" width="340" height="8" as="geometry" />
        </mxCell>
        <mxCell id="M_9KOcnQaPbsYo9cMEfQ-109" value="PK&amp;nbsp; ds,biz_scene,pay_scene,reason" style="text;html=1;strokeColor=none;fillColor=none;align=left;verticalAlign=top;spacingLeft=4;spacingRight=4;whiteSpace=wrap;overflow=hidden;rotatable=0;points=[[0,0.5],[1,0.5]];portConstraint=eastwest;" vertex="1" parent="M_9KOcnQaPbsYo9cMEfQ-105">
          <mxGeometry y="86" width="340" height="26" as="geometry" />
        </mxCell>
        <mxCell id="M_9KOcnQaPbsYo9cMEfQ-114" value="&lt;div&gt;干预后策略投诉数据(day)&lt;/div&gt;" style="swimlane;html=1;fontStyle=1;align=center;verticalAlign=top;childLayout=stackLayout;horizontal=1;startSize=26;horizontalStack=0;resizeParent=1;resizeLast=0;collapsible=1;marginBottom=0;swimlaneFillColor=#ffffff;rounded=0;shadow=0;comic=0;labelBackgroundColor=none;strokeWidth=1;fillColor=none;fontFamily=Verdana;fontSize=12" vertex="1" parent="1">
          <mxGeometry x="1881.25" y="460" width="340" height="120" as="geometry" />
        </mxCell>
        <mxCell id="M_9KOcnQaPbsYo9cMEfQ-115" value="&lt;span&gt;wxg_wechat_pay_security_app&lt;/span&gt;" style="text;html=1;strokeColor=none;fillColor=none;align=left;verticalAlign=top;spacingLeft=4;spacingRight=4;whiteSpace=wrap;overflow=hidden;rotatable=0;points=[[0,0.5],[1,0.5]];portConstraint=eastwest;" vertex="1" parent="M_9KOcnQaPbsYo9cMEfQ-114">
          <mxGeometry y="26" width="340" height="26" as="geometry" />
        </mxCell>
        <mxCell id="M_9KOcnQaPbsYo9cMEfQ-116" value="t_dm_xxx_day" style="text;html=1;strokeColor=none;fillColor=none;align=left;verticalAlign=top;spacingLeft=4;spacingRight=4;whiteSpace=wrap;overflow=hidden;rotatable=0;points=[[0,0.5],[1,0.5]];portConstraint=eastwest;" vertex="1" parent="M_9KOcnQaPbsYo9cMEfQ-114">
          <mxGeometry y="52" width="340" height="26" as="geometry" />
        </mxCell>
        <mxCell id="M_9KOcnQaPbsYo9cMEfQ-117" value="" style="line;html=1;strokeWidth=1;fillColor=none;align=left;verticalAlign=middle;spacingTop=-1;spacingLeft=3;spacingRight=3;rotatable=0;labelPosition=right;points=[];portConstraint=eastwest;" vertex="1" parent="M_9KOcnQaPbsYo9cMEfQ-114">
          <mxGeometry y="78" width="340" height="8" as="geometry" />
        </mxCell>
        <mxCell id="M_9KOcnQaPbsYo9cMEfQ-118" value="PK&amp;nbsp; ds,biz_scene,pay_scene,reason" style="text;html=1;strokeColor=none;fillColor=none;align=left;verticalAlign=top;spacingLeft=4;spacingRight=4;whiteSpace=wrap;overflow=hidden;rotatable=0;points=[[0,0.5],[1,0.5]];portConstraint=eastwest;" vertex="1" parent="M_9KOcnQaPbsYo9cMEfQ-114">
          <mxGeometry y="86" width="340" height="26" as="geometry" />
        </mxCell>
        <mxCell id="M_9KOcnQaPbsYo9cMEfQ-123" value="&lt;div&gt;投诉策略覆盖数据(day)&lt;/div&gt;" style="swimlane;html=1;fontStyle=1;align=center;verticalAlign=top;childLayout=stackLayout;horizontal=1;startSize=26;horizontalStack=0;resizeParent=1;resizeLast=0;collapsible=1;marginBottom=0;swimlaneFillColor=#ffffff;rounded=0;shadow=0;comic=0;labelBackgroundColor=none;strokeWidth=1;fillColor=none;fontFamily=Verdana;fontSize=12" vertex="1" parent="1">
          <mxGeometry x="60" y="460" width="340" height="120" as="geometry" />
        </mxCell>
        <mxCell id="M_9KOcnQaPbsYo9cMEfQ-124" value="&lt;span&gt;wxg_wechat_pay_security_app&lt;/span&gt;" style="text;html=1;strokeColor=none;fillColor=none;align=left;verticalAlign=top;spacingLeft=4;spacingRight=4;whiteSpace=wrap;overflow=hidden;rotatable=0;points=[[0,0.5],[1,0.5]];portConstraint=eastwest;" vertex="1" parent="M_9KOcnQaPbsYo9cMEfQ-123">
          <mxGeometry y="26" width="340" height="26" as="geometry" />
        </mxCell>
        <mxCell id="M_9KOcnQaPbsYo9cMEfQ-125" value="t_dm_xxx_day" style="text;html=1;strokeColor=none;fillColor=none;align=left;verticalAlign=top;spacingLeft=4;spacingRight=4;whiteSpace=wrap;overflow=hidden;rotatable=0;points=[[0,0.5],[1,0.5]];portConstraint=eastwest;" vertex="1" parent="M_9KOcnQaPbsYo9cMEfQ-123">
          <mxGeometry y="52" width="340" height="26" as="geometry" />
        </mxCell>
        <mxCell id="M_9KOcnQaPbsYo9cMEfQ-126" value="" style="line;html=1;strokeWidth=1;fillColor=none;align=left;verticalAlign=middle;spacingTop=-1;spacingLeft=3;spacingRight=3;rotatable=0;labelPosition=right;points=[];portConstraint=eastwest;" vertex="1" parent="M_9KOcnQaPbsYo9cMEfQ-123">
          <mxGeometry y="78" width="340" height="8" as="geometry" />
        </mxCell>
        <mxCell id="M_9KOcnQaPbsYo9cMEfQ-127" value="PK&amp;nbsp; ds,biz_scene,pay_scene,reason" style="text;html=1;strokeColor=none;fillColor=none;align=left;verticalAlign=top;spacingLeft=4;spacingRight=4;whiteSpace=wrap;overflow=hidden;rotatable=0;points=[[0,0.5],[1,0.5]];portConstraint=eastwest;" vertex="1" parent="M_9KOcnQaPbsYo9cMEfQ-123">
          <mxGeometry y="86" width="340" height="26" as="geometry" />
        </mxCell>
      </root>
    </mxGraphModel>
  </diagram>
</mxfile>
